HIERARCHY
ROOT joint_0
{
	OFFSET 0.000000 0.000000 0.000000
	CHANNELS 6 Xposition Yposition Zposition Zrotation Yrotation Xrotation 
	JOINT joint_1
	{
		OFFSET 7.566162 2.250183 114.799927
		CHANNELS 3 Zrotation Yrotation Xrotation
		JOINT joint_2
		{
			OFFSET -5.201660 -0.414001 104.936035
			CHANNELS 3 Zrotation Yrotation Xrotation
			JOINT joint_3
			{
				OFFSET -6.923584 -0.419739 104.718018
				CHANNELS 3 Zrotation Yrotation Xrotation
				JOINT joint_4
				{
					OFFSET 3.108887 2.881104 149.449951
					CHANNELS 3 Zrotation Yrotation Xrotation
					JOINT joint_5
					{
						OFFSET 19.988770 5.920349 90.786987
						CHANNELS 3 Zrotation Yrotation Xrotation
						End Site
						{
							OFFSET 0.000000 0.000000 0.000000
						}
					}
				}
				JOINT joint_6
				{
					OFFSET 9.283936 -30.015930 84.410034
					CHANNELS 3 Zrotation Yrotation Xrotation
					JOINT joint_7
					{
						OFFSET 47.243164 -155.716736 -23.241089
						CHANNELS 3 Zrotation Yrotation Xrotation
						JOINT joint_8
						{
							OFFSET 31.323730 -15.356873 -268.798950
							CHANNELS 3 Zrotation Yrotation Xrotation
							JOINT joint_9
							{
								OFFSET 28.122314 -2.114624 -262.450012
								CHANNELS 3 Zrotation Yrotation Xrotation
								End Site
								{
									OFFSET 0.000000 0.000000 0.000000
								}
							}
						}
					}
				}
				JOINT joint_10
				{
					OFFSET -5.580566 33.311218 83.498047
					CHANNELS 3 Zrotation Yrotation Xrotation
					JOINT joint_11
					{
						OFFSET -22.773438 160.515381 -27.138062
						CHANNELS 3 Zrotation Yrotation Xrotation
						JOINT joint_12
						{
							OFFSET 27.004395 30.848877 -267.937988
							CHANNELS 3 Zrotation Yrotation Xrotation
							JOINT joint_13
							{
								OFFSET 32.625000 14.824585 -261.518005
								CHANNELS 3 Zrotation Yrotation Xrotation
								End Site
								{
									OFFSET 0.000000 0.000000 0.000000
								}
							}
						}
					}
				}
			}
		}
	}
	JOINT joint_14
	{
		OFFSET 20.623535 -83.447632 -106.174011
		CHANNELS 3 Zrotation Yrotation Xrotation
		JOINT joint_15
		{
			OFFSET 0.661865 -23.563843 -459.915039
			CHANNELS 3 Zrotation Yrotation Xrotation
			JOINT joint_16
			{
				OFFSET -23.461670 -28.727966 -444.760971
				CHANNELS 3 Zrotation Yrotation Xrotation
				JOINT joint_17
				{
					OFFSET 178.992920 54.047363 -80.113001
					CHANNELS 3 Zrotation Yrotation Xrotation
					End Site
					{
						OFFSET 0.000000 0.000000 0.000000
					}
				}
			}
		}
	}
	JOINT joint_18
	{
		OFFSET -19.571533 84.686279 -105.380005
		CHANNELS 3 Zrotation Yrotation Xrotation
		JOINT joint_19
		{
			OFFSET -22.949951 3.639404 -459.933044
			CHANNELS 3 Zrotation Yrotation Xrotation
			JOINT joint_20
			{
				OFFSET -33.690674 4.092651 -445.010971
				CHANNELS 3 Zrotation Yrotation Xrotation
				JOINT joint_21
				{
					OFFSET 187.419678 18.953857 -76.759001
					CHANNELS 3 Zrotation Yrotation Xrotation
					End Site
					{
						OFFSET 0.000000 0.000000 0.000000
					}
				}
			}
		}
	}
}
MOTION
Frames: 18
Frame Time: 0.016667
-3302.593506 917.877319 1111.426025 -14.533204 1.226688 -1.039647 0.120969 -1.224089 1.136216 0.070091 0.099725 -0.204904 0.094192 -0.173695 0.169336 -0.098209 -0.826068 0.727023 0.000000 0.000000 0.000000 4.461178 3.466775 0.275120 0.107177 4.087113 0.149057 0.182756 2.421232 1.887635 0.000000 0.000000 0.000000 1.791712 4.805758 -2.174086 0.026625 4.288217 -3.924357 0.254012 1.965407 0.750325 0.000000 0.000000 0.000000 -0.951726 1.226925 0.891658 -0.835133 -1.536113 0.152899 -0.768206 -3.399059 0.681336 0.000000 0.000000 0.000000 1.926328 -1.208905 -0.791435 1.850769 0.966282 0.916491 1.834719 -0.753622 0.827045 0.000000 0.000000 0.000000 
-3300.733887 917.747498 1111.251953 -14.607459 1.494443 -1.098021 0.136434 -1.182731 1.130052 0.087949 0.091902 -0.204659 0.111996 -0.159987 0.166351 -0.095433 -0.912217 0.741120 0.000000 0.000000 0.000000 4.505324 3.540846 0.366895 0.109262 4.104830 0.030305 0.181128 2.450794 1.879343 0.000000 0.000000 0.000000 1.805124 4.802221 -2.261009 0.035202 4.310373 -3.831907 0.253983 1.992291 0.730882 0.000000 0.000000 0.000000 -0.936743 1.095219 0.930517 -0.817946 -1.666335 0.177723 -0.764131 -3.353902 0.669651 0.000000 0.000000 0.000000 1.968295 -1.286965 -0.786599 1.889990 0.758803 0.965325 1.880112 -0.750867 0.845374 0.000000 0.000000 0.000000 
-3298.539062 917.645264 1111.043945 -14.681940 1.794719 -1.146603 0.148139 -1.095490 1.092840 0.103588 0.076464 -0.195379 0.126535 -0.140744 0.156479 -0.091082 -1.041462 0.761730 0.000000 0.000000 0.000000 4.529650 3.629037 0.463504 0.104189 4.127393 -0.106735 0.186492 2.300286 1.914737 0.000000 0.000000 0.000000 1.834159 4.827221 -2.368728 0.054221 4.362903 -3.742867 0.238898 1.800896 0.744772 0.000000 0.000000 0.000000 -0.923763 0.928822 0.953879 -0.804557 -1.777064 0.205795 -0.764964 -3.248766 0.637722 0.000000 0.000000 0.000000 2.030654 -1.405141 -0.787430 1.950839 0.584381 0.993869 1.944938 -0.702626 0.867049 0.000000 0.000000 0.000000 
-3295.947998 917.533752 1110.822021 -14.750318 2.131834 -1.192305 0.157602 -0.981016 1.034872 0.117687 0.057358 -0.180896 0.138979 -0.119026 0.143760 -0.085513 -1.205503 0.787787 0.000000 0.000000 0.000000 4.543141 3.729301 0.558253 0.096883 4.157982 -0.253871 0.197598 2.046824 1.985867 0.000000 0.000000 0.000000 1.862064 4.871412 -2.486645 0.079868 4.437172 -3.657752 0.214788 1.483057 0.770479 0.000000 0.000000 0.000000 -0.913795 0.735614 0.971308 -0.795359 -1.877541 0.234080 -0.770753 -3.110425 0.593597 0.000000 0.000000 0.000000 2.100741 -1.558601 -0.788073 2.020859 0.434847 1.005610 2.017312 -0.628169 0.889149 0.000000 0.000000 0.000000 
-3292.623535 917.294250 1110.636963 -14.780829 2.566285 -1.252403 0.157166 -0.898473 0.965016 0.122949 0.048732 -0.166510 0.142615 -0.105478 0.131428 -0.079335 -1.449539 0.838836 0.000000 0.000000 0.000000 4.565651 3.856731 0.601377 0.100622 4.245681 -0.352854 0.219083 1.766874 2.133985 0.000000 0.000000 0.000000 1.842769 4.951128 -2.559677 0.103918 4.543394 -3.609670 0.183687 1.165772 0.734658 0.000000 0.000000 0.000000 -0.914217 0.478699 1.009580 -0.798919 -1.967422 0.253684 -0.787807 -2.991297 0.550269 0.000000 0.000000 0.000000 2.143103 -1.809527 -0.760627 2.067700 0.340837 0.985132 2.063878 -0.562254 0.901527 0.000000 0.000000 0.000000 
-3288.604248 916.863953 1110.536011 -14.749390 3.123884 -1.332810 0.140536 -0.859329 0.882178 0.113586 0.057297 -0.152881 0.131905 -0.113409 0.122263 -0.071585 -1.808966 0.924862 0.000000 0.000000 0.000000 4.597262 4.020740 0.571688 0.123140 4.418332 -0.360967 0.251278 1.459518 2.358451 0.000000 0.000000 0.000000 1.749389 5.077173 -2.562168 0.122420 4.688369 -3.626476 0.144925 0.878237 0.613684 0.000000 0.000000 0.000000 -0.928269 0.131210 1.090379 -0.819529 -2.043827 0.247670 -0.820504 -2.899651 0.508294 0.000000 0.000000 0.000000 2.131677 -2.222792 -0.682144 2.068284 0.365875 0.915503 2.060164 -0.513160 0.894998 0.000000 0.000000 0.000000 
-3283.853516 916.305725 1110.472046 -14.680011 3.774383 -1.424568 0.114142 -0.840143 0.785768 0.095696 0.073964 -0.138807 0.112820 -0.137301 0.115378 -0.062067 -2.249805 1.035128 0.000000 0.000000 0.000000 4.630655 4.216815 0.498034 0.160309 4.646941 -0.328014 0.294244 1.124633 2.656005 0.000000 0.000000 0.000000 1.610910 5.240464 -2.526518 0.139454 4.867937 -3.675533 0.099190 0.589820 0.432958 0.000000 0.000000 0.000000 -0.953014 -0.274436 1.190252 -0.853087 -2.111079 0.232791 -0.864982 -2.821917 0.465332 0.000000 0.000000 0.000000 2.091914 -2.727851 -0.576654 2.045219 0.444705 0.813954 2.030531 -0.466409 0.878042 0.000000 0.000000 0.000000 
-3277.925293 915.686523 1110.369019 -14.611359 4.496149 -1.524187 0.086040 -0.851198 0.683109 0.077592 0.091780 -0.122119 0.093339 -0.159554 0.107348 -0.053386 -2.712989 1.160933 0.000000 0.000000 0.000000 4.680820 4.439967 0.412105 0.206998 4.892672 -0.342359 0.351912 0.843606 3.066383 0.000000 0.000000 0.000000 1.470181 5.428178 -2.491666 0.158495 5.077398 -3.692702 0.049179 0.332923 0.192855 0.000000 0.000000 0.000000 -0.987672 -0.688898 1.270641 -0.896415 -2.178570 0.250157 -0.916280 -2.770854 0.427492 0.000000 0.000000 0.000000 2.064072 -3.187957 -0.485128 2.033870 0.417781 0.716858 2.014154 -0.418372 0.866269 0.000000 0.000000 0.000000 
-3270.732666 915.032959 1110.167969 -14.559636 5.309465 -1.629183 0.057975 -0.903001 0.571318 0.062103 0.108174 -0.102425 0.076170 -0.177171 0.097056 -0.045804 -3.198158 1.303497 0.000000 0.000000 0.000000 4.769776 4.700556 0.316698 0.264975 5.155250 -0.444591 0.432765 0.648577 3.657458 0.000000 0.000000 0.000000 1.334764 5.645009 -2.461260 0.178797 5.320756 -3.676598 -0.005208 0.114319 -0.112442 0.000000 0.000000 0.000000 -1.035956 -1.117895 1.313132 -0.951558 -2.269365 0.327823 -0.977247 -2.744989 0.393110 0.000000 0.000000 0.000000 2.068806 -3.577444 -0.425187 2.053991 0.205448 0.629148 2.031548 -0.354412 0.866535 0.000000 0.000000 0.000000 
-3262.363525 914.319458 1109.927979 -14.509052 6.189574 -1.742700 0.028380 -0.974990 0.454315 0.047130 0.125749 -0.081142 0.059460 -0.200928 0.087394 -0.038672 -3.708433 1.461500 0.000000 0.000000 0.000000 4.871147 4.995911 0.221747 0.336545 5.433429 -0.606253 0.529075 0.500641 4.358598 0.000000 0.000000 0.000000 1.196117 5.886265 -2.444767 0.201323 5.597681 -3.616497 -0.063639 -0.073661 -0.477304 0.000000 0.000000 0.000000 -1.094605 -1.550162 1.337652 -1.015966 -2.362246 0.438061 -1.045456 -2.731502 0.359460 0.000000 0.000000 0.000000 2.085381 -3.916053 -0.378391 2.086801 -0.115431 0.544111 2.062296 -0.274499 0.870436 0.000000 0.000000 0.000000 
-3252.633545 913.531677 1109.748047 -14.454253 7.051265 -1.872031 0.002993 -1.037227 0.350765 0.036080 0.139531 -0.059591 0.046570 -0.219109 0.077294 -0.033281 -4.204027 1.623819 0.000000 0.000000 0.000000 4.926409 5.294967 0.163652 0.413469 5.684528 -0.805766 0.619554 0.382274 5.007121 0.000000 0.000000 0.000000 1.059945 6.122199 -2.486176 0.232296 5.895976 -3.433930 -0.123044 -0.220535 -0.885058 0.000000 0.000000 0.000000 -1.150179 -1.916574 1.366045 -1.077429 -2.398123 0.535009 -1.105678 -2.725063 0.331758 0.000000 0.000000 0.000000 2.094011 -4.137825 -0.329141 2.111866 -0.472649 0.478905 2.086346 -0.192764 0.871154 0.000000 0.000000 0.000000 
-3241.485596 912.649170 1109.624023 -14.400617 7.877160 -2.027602 -0.011656 -1.080772 0.268956 0.034451 0.145805 -0.036070 0.042452 -0.221655 0.061777 -0.031265 -4.675373 1.791091 0.000000 0.000000 0.000000 4.910212 5.600154 0.163383 0.491669 5.896729 -1.057770 0.699029 0.292341 5.570197 0.000000 0.000000 0.000000 0.907441 6.337054 -2.634881 0.280185 6.224823 -3.038091 -0.184995 -0.307084 -1.363817 0.000000 0.000000 0.000000 -1.195880 -2.192098 1.410459 -1.128064 -2.387683 0.615431 -1.152282 -2.701253 0.305148 0.000000 0.000000 0.000000 2.095091 -4.202610 -0.270081 2.127741 -0.898824 0.450248 2.103579 -0.100612 0.867704 0.000000 0.000000 0.000000 
-3228.975830 911.691284 1109.561035 -14.345911 8.685527 -2.202810 -0.020602 -1.116282 0.205951 0.037523 0.149241 -0.012987 0.042735 -0.217566 0.043825 -0.031675 -5.133474 1.963401 0.000000 0.000000 0.000000 4.853700 5.909606 0.200553 0.572420 6.082145 -1.350468 0.771707 0.233458 6.083548 0.000000 0.000000 0.000000 0.748599 6.544663 -2.850541 0.338832 6.577873 -2.508852 -0.247355 -0.353796 -1.886867 0.000000 0.000000 0.000000 -1.237197 -2.402406 1.463168 -1.174769 -2.323241 0.682274 -1.190918 -2.662819 0.278021 0.000000 0.000000 0.000000 2.090942 -4.150913 -0.203182 2.136664 -1.364772 0.440666 2.114606 0.017846 0.858655 0.000000 0.000000 0.000000 
-3215.091797 910.709412 1109.670044 -14.276645 9.449759 -2.378953 -0.033866 -1.149025 0.165677 0.034554 0.152581 0.000230 0.038018 -0.217327 0.032369 -0.033548 -5.568259 2.135238 0.000000 0.000000 0.000000 4.785794 6.179763 0.235490 0.650518 6.237615 -1.610003 0.829744 0.197830 6.492053 0.000000 0.000000 0.000000 0.635142 6.760933 -3.032043 0.390539 6.917062 -2.031509 -0.302630 -0.409203 -2.356215 0.000000 0.000000 0.000000 -1.277009 -2.562030 1.513672 -1.225846 -2.116883 0.701623 -1.221612 -2.639400 0.259444 0.000000 0.000000 0.000000 2.065478 -4.042322 -0.127505 2.124296 -1.707882 0.417294 2.103090 0.156008 0.838003 0.000000 0.000000 0.000000 
-3199.875000 909.716125 1110.010986 -14.182859 10.156288 -2.547973 -0.055760 -1.178860 0.143872 0.021365 0.155346 0.006957 0.023800 -0.217153 0.026034 -0.039204 -5.951306 2.303963 0.000000 0.000000 0.000000 4.686876 6.382733 0.237445 0.724094 6.360642 -1.779769 0.867564 0.192671 6.757926 0.000000 0.000000 0.000000 0.597805 6.987029 -3.142655 0.425306 7.221479 -1.668983 -0.345525 -0.466200 -2.719254 0.000000 0.000000 0.000000 -1.316695 -2.677021 1.563663 -1.285230 -1.729733 0.644623 -1.247272 -2.622891 0.245817 0.000000 0.000000 0.000000 2.004559 -3.910569 -0.042024 2.077291 -1.839556 0.374644 2.056813 0.308793 0.801353 0.000000 0.000000 0.000000 
-3183.284424 908.697876 1110.525024 -14.074313 10.822821 -2.716105 -0.081862 -1.213546 0.142298 0.002687 0.157361 0.006457 0.004820 -0.213217 0.023567 -0.046654 -6.312082 2.473821 0.000000 0.000000 0.000000 4.576298 6.539866 0.223569 0.790424 6.456621 -1.903333 0.890555 0.212949 6.923519 0.000000 0.000000 0.000000 0.608396 7.221285 -3.214823 0.449832 7.509134 -1.358482 -0.382677 -0.528807 -3.030253 0.000000 0.000000 0.000000 -1.353322 -2.746057 1.610493 -1.347713 -1.204468 0.542793 -1.268326 -2.580525 0.227160 0.000000 0.000000 0.000000 1.921877 -3.726292 0.051206 2.007711 -1.852035 0.320764 1.989027 0.508860 0.750793 0.000000 0.000000 0.000000 
-3165.187012 907.657593 1111.147949 -13.965327 11.468783 -2.884536 -0.109869 -1.272383 0.161442 -0.017660 0.168107 0.000358 -0.014760 -0.221783 0.028545 -0.047050 -6.721140 2.644016 0.000000 0.000000 0.000000 4.535683 6.679784 0.221050 0.842521 6.535313 -2.051108 0.907640 0.236016 7.056508 0.000000 0.000000 0.000000 0.635290 7.477030 -3.244518 0.469642 7.798878 -1.101917 -0.424833 -0.657726 -3.355737 0.000000 0.000000 0.000000 -1.384323 -2.771400 1.638523 -1.408722 -0.574564 0.448957 -1.282174 -2.504548 0.202372 0.000000 0.000000 0.000000 1.841887 -3.453009 0.147809 1.938433 -1.855449 0.242991 1.921508 0.809824 0.689629 0.000000 0.000000 0.000000 
-3145.267334 906.618958 1111.874023 -13.865191 12.115210 -3.059176 -0.149892 -1.419514 0.214475 -0.045912 0.204755 -0.015910 -0.039969 -0.265805 0.046406 -0.035810 -7.195311 2.807607 0.000000 0.000000 0.000000 4.553805 6.831282 0.217005 0.885183 6.618398 -2.248421 0.925399 0.248892 7.199101 0.000000 0.000000 0.000000 0.740817 7.810192 -3.185841 0.480434 8.120203 -0.954603 -0.481154 -0.929948 -3.745178 0.000000 0.000000 0.000000 -1.405161 -2.719615 1.631098 -1.458235 0.079939 0.406485 -1.286525 -2.339307 0.155730 0.000000 0.000000 0.000000 1.787112 -3.057103 0.242464 1.890018 -1.932101 0.131067 1.873763 1.263803 0.620209 0.000000 0.000000 0.000000 
